<svg width="29" height="29" viewBox="0 0 29 29" fill="none" xmlns="http://www.w3.org/2000/svg">
<g id="basil:eye-closed-solid">
<path id="Vector" fill-rule="evenodd" clip-rule="evenodd" d="M24.807 5.47374C24.9671 5.30194 25.0543 5.07472 25.0501 4.83994C25.046 4.60516 24.9509 4.38115 24.7848 4.21511C24.6188 4.04907 24.3948 3.95396 24.16 3.94982C23.9252 3.94568 23.698 4.03282 23.5262 4.1929L4.19286 23.5262C4.10382 23.6092 4.0324 23.7093 3.98287 23.8204C3.93334 23.9316 3.90671 24.0516 3.90456 24.1733C3.90241 24.295 3.9248 24.4158 3.97038 24.5287C4.01596 24.6415 4.0838 24.744 4.16985 24.8301C4.25591 24.9161 4.35842 24.984 4.47126 25.0296C4.58411 25.0751 4.70497 25.0975 4.82666 25.0954C4.94834 25.0932 5.06834 25.0666 5.17951 25.0171C5.29067 24.9675 5.39073 24.8961 5.47369 24.8071L9.14098 21.1398C10.7336 21.8744 12.5569 22.3542 14.4999 22.3542C17.6634 22.3542 20.5078 21.0842 22.5571 19.5109C23.5842 18.7231 24.4264 17.8483 25.0161 16.9976C25.5961 16.1614 25.9791 15.2842 25.9791 14.5C25.9791 13.7158 25.5961 12.8385 25.0161 12.0036C24.4264 11.1517 23.5842 10.2769 22.5571 9.49024C22.2309 9.2389 21.8829 8.99482 21.5179 8.76403L24.807 5.47374ZM18.282 12.0012L16.9529 13.3279C17.1952 13.8352 17.2742 14.4052 17.1791 14.9593C17.0841 15.5135 16.8195 16.0245 16.422 16.422C16.0244 16.8196 15.5134 17.0841 14.9593 17.1792C14.4052 17.2743 13.8352 17.1952 13.3279 16.9529L11.9987 18.2821C12.8701 18.859 13.9141 19.117 14.9539 19.0124C15.9937 18.9078 16.9654 18.447 17.7043 17.708C18.4433 16.969 18.9041 15.9973 19.0087 14.9575C19.1134 13.9177 18.8553 12.8737 18.2784 12.0024L18.282 12.0012Z" fill="black"/>
<path id="Vector_2" d="M15.3096 10.0413C15.3593 10.0506 15.4106 10.0477 15.4589 10.033C15.5073 10.0183 15.5514 9.9921 15.5875 9.95668L17.9438 7.60043C17.9804 7.5644 18.007 7.51939 18.0207 7.4699C18.0345 7.42041 18.0351 7.36817 18.0224 7.31839C18.0097 7.26862 17.9841 7.22305 17.9483 7.18624C17.9124 7.14943 17.8675 7.12267 17.8181 7.10864C16.7383 6.80428 15.622 6.64858 14.5 6.64584C11.3366 6.64584 8.49221 7.9158 6.44287 9.48905C5.41579 10.2769 4.57358 11.1517 3.98271 12.0024C3.40271 12.8386 3.02087 13.7158 3.02087 14.5C3.02087 15.2842 3.40392 16.1615 3.98271 16.9964C4.5577 17.8034 5.23706 18.5307 6.00304 19.1593C6.06036 19.2067 6.13335 19.2309 6.20762 19.2271C6.28189 19.2233 6.35203 19.1918 6.40421 19.1388L9.95671 15.5863C9.99214 15.5502 10.0183 15.5061 10.0331 15.4577C10.0478 15.4093 10.0506 15.3581 10.0413 15.3084C9.91035 14.5877 9.95605 13.8461 10.1745 13.147C10.3929 12.4479 10.7776 11.8121 11.2955 11.2942C11.8134 10.7763 12.4491 10.3917 13.1482 10.1732C13.8473 9.95481 14.589 9.90911 15.3096 10.0401V10.0413Z" fill="black"/>
</g>
</svg>
